<svg width="552" height="821" viewBox="0 0 552 821" fill="none" xmlns="http://www.w3.org/2000/svg">
<path d="M557.552 112.717C527.06 110.351 452.034 93.4154 395.87 44.5986C325.666 -16.4223 285.028 -4.98436 272.728 33.7159C260.428 72.4161 217.192 157.11 253.124 216.735C289.057 276.359 301.757 306.442 307.398 337.718C313.039 368.994 346.748 474.965 230.086 531.129C113.425 587.293 78.439 572.452 44.7768 563.976C11.1146 555.499 -27.9918 508.949 34.5578 509.178C97.1073 509.407 184.385 559.963 218.389 597.282C252.393 634.601 287.351 682.171 313.557 728.459C339.762 774.746 371.027 826.659 410.108 777.518C449.189 728.376 448.63 729.753 455.468 719.842C462.768 709.259 484.381 690.375 486.87 736.527C489.359 782.68 486.249 801.162 492.741 810.654C499.233 820.146 503.598 825.642 523.061 806.273" stroke="#1F1F22" stroke-width="2" stroke-linecap="round"/>
</svg>
