<svg width="632" height="181" viewBox="0 0 632 181" fill="none" xmlns="http://www.w3.org/2000/svg">
<path d="M28.0562 107.873C26.692 97.2254 26.4647 73.625 57.1587 52.0004C72.6193 41.1333 94.9009 31.4736 132.188 22.8018C261.785 -7.275 516.205 -12.1049 597.146 44.9752C615.107 57.5987 617.836 68.5756 618.291 71.1003C625.566 105.897 553.492 134.657 534.621 142.121C400.249 194.262 163.792 190.31 83.0781 144.646C72.1646 138.389 52.8388 116.325 53.5209 93.603C54.2029 80.3209 63.9796 66.9291 83.0781 55.5131C149.695 15.7766 300.437 15.7766 361.825 15.7766C441.857 15.7766 607.605 18.411 628.749 52.9884C647.62 83.7238 543.488 125.656 478.462 144.646C294.753 197.994 77.6213 168.246 1 155.732" stroke="#1F1F22" stroke-width="1.1862" stroke-miterlimit="10" stroke-linecap="round"/>
</svg>
