<svg width="629" height="828" viewBox="0 0 629 828" fill="none" xmlns="http://www.w3.org/2000/svg">
<path d="M254.743 48.7429C335.094 -4.30059 383.825 -4.11447 414.329 7.79705C443.159 19.1502 453.946 40.3676 485.938 46.1372C526.858 53.5819 565.917 29.0144 593.445 5.93588C598.653 65.6795 603.675 125.423 608.883 185.167C573.543 218.668 527.416 251.983 487.798 239.885C458.968 230.952 453.946 204.523 425.489 191.309C398.147 178.653 352.392 179.583 271.111 237.466C268.879 213.27 266.833 189.261 264.787 165.066C261.439 126.354 258.091 87.4553 254.743 48.7429Z" fill="white" stroke="#1F1F22" stroke-miterlimit="10"/>
<path d="M405.773 185.353C404.471 152.968 402.053 118.537 398.147 82.4301C394.985 54.1403 391.265 27.1532 386.987 1.46906C394.985 2.21353 406.331 4.26082 418.792 9.65822C432.742 15.614 442.6 23.4309 448.924 29.0144C447.994 52.093 447.436 75.7299 447.622 100.297C447.622 139.196 448.924 176.233 451.342 211.409C447.622 206.756 441.112 200.056 431.44 194.287C421.21 188.517 411.725 186.283 405.773 185.353Z" fill="#1F1F22" stroke="#1F1F22" stroke-miterlimit="10"/>
<path d="M604.047 130.448C577.263 141.243 537.273 153.155 489.658 149.06C446.32 145.338 428.465 131.193 387.359 127.843C358.529 125.609 316.68 128.401 263.857 154.271C262.927 143.104 261.997 131.751 260.881 120.584C260.137 112.581 259.579 104.764 258.835 96.7612C321.702 69.9603 367.457 71.6353 397.589 77.9633C434.789 85.9664 451.156 101.786 490.774 106.253C536.343 111.464 575.217 97.3195 600.141 85.2219C600.699 92.4805 601.443 99.7391 602.001 106.811C602.745 114.628 603.303 122.445 604.047 130.448Z" fill="#1F1F22" stroke="#1F1F22" stroke-width="1.2854" stroke-miterlimit="10"/>
<path d="M464.734 39.0648C462.874 46.5095 461.2 55.4431 460.27 65.3073C459.526 73.3104 459.526 80.569 459.898 87.0831C466.78 83.733 473.848 79.8245 481.288 75.5438C498.4 65.4934 512.908 54.6986 524.997 44.2761C518.116 46.1372 506.956 48.3706 493.192 47.0678C480.544 45.9511 470.872 42.0426 464.734 39.0648Z" fill="#1F1F22" stroke="#1F1F22" stroke-width="1.2854" stroke-miterlimit="10"/>
<path d="M463.99 222.576C463.804 214.201 463.804 205.081 464.176 195.589C464.548 185.911 465.292 176.791 466.222 168.416C469.198 171.952 473.662 177.164 479.8 183.119C485.008 188.145 489.286 191.495 490.216 192.425C506.583 207.687 519.975 222.576 530.577 236.349C527.415 238.024 508.629 247.888 487.426 240.258C474.778 235.418 467.152 226.671 463.99 222.576Z" fill="#1F1F22" stroke="#1F1F22" stroke-width="1.3859" stroke-miterlimit="10"/>
<path d="M596.235 38.8786C580.983 47.9984 564.987 58.0487 548.619 69.588C538.948 76.4744 529.648 83.3607 520.906 90.0609C531.694 89.5026 544.713 88.1998 559.221 84.4774C575.217 80.5689 588.609 74.9854 598.839 69.9603C598.467 65.3073 598.095 60.4683 597.537 55.8153C597.165 50.2318 596.793 44.6483 596.235 38.8786Z" fill="#1F1F22" stroke="#1F1F22" stroke-width="1.2854" stroke-miterlimit="10"/>
<path d="M256.045 62.8878C266.46 56.7459 296.778 46.3234 320.772 50.4179C335.652 53.0236 346.998 58.7932 354.251 63.4462C340.488 63.4462 324.12 64.3767 305.892 67.3546C287.106 70.7047 270.738 75.3577 257.533 80.1967C257.347 78.1494 257.161 76.2883 256.975 74.241C256.603 70.5186 256.417 66.6102 256.045 62.8878Z" fill="#1F1F22" stroke="#1F1F22" stroke-width="1.2854" stroke-miterlimit="10"/>
<path d="M608.511 182.189C594.189 183.492 574.845 183.864 552.34 179.583C535.042 176.233 520.534 171.022 509.56 166.183C522.208 165.624 536.53 164.136 551.968 161.158C572.055 157.435 589.725 152.224 604.419 146.827C605.163 150.363 605.907 153.899 606.651 157.808C607.953 166.741 608.511 174.93 608.511 182.189Z" fill="#1F1F22" stroke="#1F1F22" stroke-width="1.2854" stroke-miterlimit="10"/>
<path d="M336.582 7.98318C341.604 5.93588 347.928 3.88859 355.367 2.58577C364.667 0.910711 372.851 0.724594 379.175 1.28295C380.477 21.942 381.779 42.4149 383.081 63.0739C376.757 54.1403 369.689 45.0205 361.691 35.7146C353.136 25.6643 344.766 16.3584 336.582 7.98318Z" fill="#1F1F22" stroke="#1F1F22" stroke-miterlimit="10"/>
<path d="M384.383 139.196C387.173 154.271 389.963 169.533 392.939 184.608C385.685 184.981 377.315 185.911 368.015 187.959C357.785 190.192 349.23 193.356 342.162 196.334C346.254 185.725 353.136 171.022 365.783 156.691C372.107 149.432 378.617 143.663 384.383 139.196Z" fill="#1F1F22" stroke="#1F1F22" stroke-width="1.2854" stroke-miterlimit="10"/>
<path d="M282.084 157.994C290.454 156.319 295.104 157.808 306.45 157.435C311.286 157.249 318.354 156.877 326.91 155.202C315.564 164.694 303.66 175.675 291.57 188.145C283.2 196.892 275.574 205.454 268.878 213.829C267.39 197.637 266.088 181.258 264.6 165.066C268.506 162.647 274.272 159.483 282.084 157.994Z" fill="#1F1F22" stroke="#1F1F22" stroke-miterlimit="10"/>
<path d="M289.892 185.424C285.122 187.234 271.833 193.122 256.425 222.541C240.841 252.09 220.311 291.213 236.963 320.544C254.964 352.405 308.303 358.008 337.672 333.234C379.067 298.341 363.633 210.457 328.551 189.239C318.643 183.461 303.681 180.386 289.892 185.424Z" fill="#1F1F22" stroke="#1F1F22" stroke-miterlimit="10"/>
<path d="M370.959 120.065C368.87 116.183 358.161 96.4259 335.336 90.6692C305.913 83.1897 282.165 105.652 278.003 109.73C272.6 114.877 262.709 124.21 259.741 139.519C255.879 159.997 266.131 180.779 281.373 191.683C290.127 197.919 298.599 199.598 306.178 200.994C317.394 203.066 347.885 208.517 366.71 188.933C384.642 170.157 381.582 139.343 370.959 120.065Z" fill="white" stroke="#1F1F22" stroke-miterlimit="10"/>
<path d="M320.536 123.446C324.675 123.882 326.5 135.048 327.783 142.397C329.261 151.643 330.152 157.378 326.752 162.656C326.164 163.506 321.784 170.201 315.315 169.744C309.935 169.286 306.147 164.227 304.689 160.279C302.23 153.541 305.5 146.999 311.493 135.549C315.395 127.851 317.77 123.206 320.536 123.446Z" fill="#1F1F22" stroke="#1F1F22" stroke-width="0.4418" stroke-miterlimit="10"/>
<path d="M306.225 129.967C310.56 126.848 307.385 113.153 303.007 112.216C300.285 111.67 296.254 115.923 295.447 120.481C295.316 121.397 294.508 124.864 296.751 127.677C299.124 130.665 303.959 131.668 306.225 129.967Z" fill="#1F1F22" stroke="#1F1F22" stroke-width="0.4418" stroke-miterlimit="10"/>
<path d="M272.982 144.84C279.43 142.18 280.761 135.048 280.805 134.743C282.092 126.827 275.823 117.363 267.895 117.319C261.97 117.407 257.003 122.771 255.607 128.18C255.323 129.074 253.578 135.834 258.259 141.177C261.743 145.102 267.71 146.89 272.982 144.84Z" fill="#1F1F22" stroke="#1F1F22" stroke-width="0.6825" stroke-miterlimit="10"/>
<path d="M340.265 138.886C338.959 133.87 349.591 124.798 353.533 126.608C356.016 127.742 356.297 133.39 354.314 137.468C353.878 138.34 352.33 141.546 348.932 142.462C345.207 143.487 340.982 141.481 340.265 138.886Z" fill="#1F1F22" stroke="#1F1F22" stroke-width="0.4302" stroke-miterlimit="10"/>
<path d="M372.854 186.229C379.302 183.568 380.633 176.437 380.677 176.132C381.964 168.216 375.695 158.752 367.767 158.708C361.842 158.795 356.875 164.16 355.479 169.568C355.195 170.463 353.451 177.223 358.132 182.566C361.615 186.491 367.582 188.279 372.854 186.229Z" fill="#1F1F22" stroke="#1F1F22" stroke-width="0.6825" stroke-miterlimit="10"/>
<path d="M212.686 739.38C223.289 753.358 231.1 777.063 221.882 791.478C212.053 806.896 191.147 798.61 141.222 808.293C93.3669 817.65 74.5649 832.719 67.7939 824.585C59.1728 814.161 82.9039 779.857 102.404 759.903C113.887 748.148 151.624 709.461 187.079 720.452C201.365 724.987 209.921 735.869 212.686 739.38Z" fill="white" stroke="#1F1F22" stroke-miterlimit="10"/>
<path d="M68.2139 808.6C95.4649 798.633 127.638 789.059 164.232 782.298C186.123 778.263 206.728 775.603 225.765 774.119" fill="white"/>
<path d="M68.2139 808.6C95.4649 798.633 127.638 789.059 164.232 782.298C186.123 778.263 206.728 775.603 225.765 774.119" stroke="#1F1F22" stroke-miterlimit="10"/>
<path d="M96.0199 766.467C97.8059 767.034 105.973 769.76 110.675 778.221C114.789 785.352 113.937 792.396 113.631 794.533" fill="white"/>
<path d="M96.0199 766.467C97.8059 767.034 105.973 769.76 110.675 778.221C114.789 785.352 113.937 792.396 113.631 794.533" stroke="#1F1F22" stroke-miterlimit="10"/>
<path d="M501.056 436.359C514.216 424.844 537.35 415.38 552.354 423.601C568.381 432.28 561.404 453.869 574.586 503.111C587.138 550.236 603.401 568.14 595.841 575.315C586.102 584.671 550.28 563.191 529.05 545.2C516.574 534.536 475.377 499.514 483.971 463.357C487.505 448.441 497.832 439.325 501.056 436.359Z" fill="white" stroke="#1F1F22" stroke-miterlimit="10"/>
<path d="M579.898 575.839C568.124 549.386 556.46 517.809 547.15 481.74C541.691 460.085 537.603 439.717 534.865 420.788" fill="white"/>
<path d="M579.898 575.839C568.124 549.386 556.46 517.809 547.15 481.74C541.691 460.085 537.603 439.717 534.865 420.788" stroke="#1F1F22" stroke-miterlimit="10"/>
<path d="M535.844 551.001C536.259 549.191 538.374 540.926 546.609 535.561C553.472 531.09 560.442 531.308 562.576 531.613" fill="white"/>
<path d="M535.844 551.001C536.259 549.191 538.374 540.926 546.609 535.561C553.472 531.09 560.442 531.308 562.576 531.613" stroke="#1F1F22" stroke-miterlimit="10"/>
<path d="M247.895 261.511C231.624 263.234 224.835 309.619 215.935 350.094C208.038 385.727 194.152 419.726 184.927 454.858C171.754 504.535 144.783 588.691 85.3789 739.709C134.864 740.712 184.197 741.692 233.682 742.694C219.134 673.63 221.353 617.868 225.875 580.817C227.644 566.272 227.008 577.241 252.618 462.358C265.292 405.288 267.18 361.629 287.743 357.093C288.374 357.027 296.869 355.282 303.445 360.429C327.572 379.924 268.414 448.728 286.225 527.606C288.313 536.939 297.012 575.102 326.212 596.102C370.09 627.614 447.96 611.802 518.462 555.057C509.611 514.692 500.782 474.173 491.931 433.808C408.631 530.002 375.738 541.343 360.974 533.623C314.655 509.396 385.918 263.493 353.838 253.92C348.176 252.176 343.447 259.132 304.347 270.364C292.345 273.788 285.44 275.293 277.077 273.941C259.827 271.629 255.932 260.791 247.895 261.511Z" fill="#1F1F22" stroke="#1F1F22" stroke-width="0.9708" stroke-miterlimit="10"/>
<path d="M220.337 213.797C256.304 194.016 271.118 185.075 281.374 191.683C288.93 196.502 292.498 208.54 289.381 217.285C284.802 229.715 267.638 232.245 250.103 237.37C190.832 254.752 187.119 285.064 154.71 283.233C149.004 282.884 134.934 281.183 88.5349 236.85C57.8781 207.541 34.4298 180.042 17.3396 158.126C38.1 147.854 58.8604 137.582 79.4679 127.289C93.3129 150.143 107.746 173.237 123.049 196.767C134.391 214.278 145.798 231.331 157.118 247.905C184.393 233.424 206.156 221.582 220.337 213.797Z" fill="#1F1F22" stroke="#1F1F22" stroke-miterlimit="10"/>
<path d="M375.028 261.312C362.409 222.277 357.645 205.551 345.841 203.239C336.911 201.495 326.193 207.907 322.487 216.412C317.169 228.58 328.12 242.297 337.24 257.933C368.499 311.317 350.369 335.829 375.235 356.677C379.525 360.406 391.087 368.758 455.231 368.429C497.595 368.102 533.621 364.219 560.979 360.032C552.884 338.311 544.942 316.613 536.847 294.893C511.1 301.959 484.743 308.938 457.515 315.481C437.214 320.366 417.413 325.011 397.657 329.351C387.822 300.217 380.142 276.687 375.028 261.312Z" fill="#1F1F22" stroke="#1F1F22" stroke-miterlimit="10"/>
<path d="M32.6526 89.1263C32.5284 70.4155 15.4129 58.4653 20.9702 48.9789C22.6047 46.2529 25.7201 44.0503 28.791 44.3337C40.7918 45.2712 48.4241 82.1913 49.2519 81.8423C49.753 81.6024 40.0236 62.6083 44.6247 46.7541C46.0638 42.1309 51.5974 38.249 55.5394 38.9686C61.3109 39.9498 63.6599 50.7227 66.2039 62.3025C69.6829 78.2219 72.5319 92.026 68.9749 110.366C66.0299 125.523 63.5859 138.258 53.4125 144.125C39.3613 152.085 17.6273 143.057 14.5387 130.932C11.1673 117.52 32.6019 110.149 32.6526 89.1263Z" fill="white" stroke="#1F1F22" stroke-miterlimit="10"/>
<path d="M18.0212 137.038C19.0662 138.433 28.2317 150.493 43.7397 149.751C60.4889 149.031 69.3369 133.94 70.1869 132.348C71.2339 130.473 77.8149 118.173 73.5289 104.631C72.6589 102.014 70.3959 94.9919 63.5799 90.4342C61.8819 89.2567 52.4966 83.0853 44.2184 87.665C40.6893 89.4969 36.1574 93.9894 36.7221 98.7434C37.3955 103.824 43.9071 106.158 46.2809 106.965C52.945 109.32 58.9789 107.379 61.6149 106.354" fill="white"/>
<path d="M18.0212 137.038C19.0662 138.433 28.2317 150.493 43.7397 149.751C60.4889 149.031 69.3369 133.94 70.1869 132.348C71.2339 130.473 77.8149 118.173 73.5289 104.631C72.6589 102.014 70.3959 94.9919 63.5799 90.4342C61.8819 89.2567 52.4966 83.0853 44.2184 87.665C40.6893 89.4969 36.1574 93.9894 36.7221 98.7434C37.3955 103.824 43.9071 106.158 46.2809 106.965C52.945 109.32 58.9789 107.379 61.6149 106.354" stroke="#1F1F22" stroke-miterlimit="10"/>
<path d="M15.2693 97.5444C14.2033 94.1206 12.1366 86.8151 15.4266 83.3913C17.6055 81.2105 21.2426 81.8865 21.8524 81.9737C27.907 83.1512 31.15 89.846 33.2829 94.5128C34.937 98.1764 38.1582 105.024 36.3475 113.333C35.5623 116.647 35.0168 119.373 33.2088 120.049C28.3946 122.165 18.7717 110.04 15.2693 97.5444Z" fill="white" stroke="#1F1F22" stroke-miterlimit="10"/>
<path d="M1.58679 108.361C1.26079 106.289 -0.195703 97.9808 3.2246 95.8218C6.4706 93.7936 11.9361 98.0024 13.1991 98.9619C16.9879 101.84 18.7944 105.526 20.3179 109.015C22.5595 114.009 24.453 118.174 23.1227 123.124C22.8174 124.171 21.4871 129.122 18.2633 129.907C12.4037 131.717 3.4995 120.006 1.58679 108.361Z" fill="white" stroke="#1F1F22" stroke-miterlimit="10"/>
<path d="M593.583 298.49C605.197 283.639 626.019 284.904 627.438 273.891C627.875 270.838 626.7 267.087 624.131 265.473C614.179 258.909 585.486 283.312 584.963 282.614C584.571 282.091 604.046 273.193 610.15 257.71C611.894 253.13 609.849 246.762 606.387 244.865C601.182 242.096 592.707 249.14 583.687 256.729C571.29 267.262 560.506 276.313 552.049 293.017C545.097 306.822 539.234 318.445 543.76 329.218C550.028 344.134 572.634 350.327 582.612 342.563C593.005 334.08 580.64 315.021 593.583 298.49Z" fill="white" stroke="#1F1F22" stroke-miterlimit="10"/>
<path d="M575.837 345.333C574.226 345.726 559.501 349.695 547.721 339.598C534.961 328.738 537.123 311.445 537.538 309.635C537.843 307.498 540.113 293.803 551.856 285.668C554.1 284.12 560.287 280.02 568.454 280.565C570.458 280.696 581.697 281.524 585.418 290.313C587.072 293.976 587.876 300.322 584.586 303.746C580.947 307.432 574.436 305.098 571.909 304.27C565.223 302.067 561.631 296.724 560.238 294.5" fill="white"/>
<path d="M575.837 345.333C574.226 345.726 559.501 349.695 547.721 339.598C534.961 328.738 537.123 311.445 537.538 309.635C537.843 307.498 540.113 293.803 551.856 285.668C554.1 284.12 560.287 280.02 568.454 280.565C570.458 280.696 581.697 281.524 585.418 290.313C587.072 293.976 587.876 300.322 584.586 303.746C580.947 307.432 574.436 305.098 571.909 304.27C565.223 302.067 561.631 296.724 560.238 294.5" stroke="#1F1F22" stroke-miterlimit="10"/>
<path d="M602.159 315.762C605.1 313.69 611.2 309.11 610.614 304.509C610.266 301.499 606.934 299.777 606.368 299.384C600.859 296.571 594.149 299.973 589.618 302.285C585.936 304.095 579.357 307.671 575.783 315.261C574.257 318.314 573.124 320.8 574.125 322.501C576.563 327.211 591.723 323.46 602.159 315.762Z" fill="white" stroke="#1F1F22" stroke-miterlimit="10"/>
<path d="M606.248 332.859C607.86 331.376 613.939 325.858 612.633 321.933C611.437 318.335 604.445 318.269 602.877 318.357C598.063 318.291 594.513 320.276 591.158 321.977C586.278 324.55 582.226 326.775 580.308 331.485C579.85 332.51 577.932 337.221 580.044 339.859C583.57 344.57 597.489 340.797 606.248 332.859Z" fill="white" stroke="#1F1F22" stroke-miterlimit="10"/>
</svg>
