<svg width="211" height="220" viewBox="0 0 211 220" fill="none" xmlns="http://www.w3.org/2000/svg">
<path d="M164.101 85.5997C175.301 84.9997 183.501 100.8 184.601 103C195.001 123.1 185.801 145.7 182.201 154.7C174.401 173.8 160.501 189.5 156.801 187.7C155.301 186.9 156.101 183.4 159.601 154.7C161.201 141.6 161.701 136.9 159.001 131.5C154.901 123.3 148.801 124 146.201 117.4C141.601 106.3 151.901 86.1997 164.101 85.5997Z" fill="#1F1F22" stroke="#1F1F22" stroke-miterlimit="10"/>
<path d="M119.6 32.6997C119 21.6997 102.4 15.4997 100.1 14.5997C79.0004 6.69967 57.6004 18.0997 49.0004 22.5997C30.8004 32.2997 16.7004 47.5997 18.9004 50.9997C19.8004 52.3997 23.3004 51.1997 51.4004 44.6997C64.3004 41.6997 68.9004 40.6997 74.6004 42.7997C83.2004 45.8997 83.1004 51.8997 90.0004 53.7997C101.4 56.8997 120.2 44.5997 119.6 32.6997Z" fill="#1F1F22" stroke="#1F1F22" stroke-miterlimit="10"/>
<path d="M101.3 133.8C80.9005 126.7 66.2005 105.1 66.4005 86.0997C66.4005 86.0997 66.5005 80.0997 68.4005 74.2997C82.0005 34.1997 196.6 -14.1003 209 5.39967C215.7 15.9997 183.5 32.9997 171.4 86.5997C169.1 96.9997 168.4 104.8 161.8 113.7C150 129.6 124.4 141.9 101.3 133.8Z" fill="#EAEAEB" stroke="#1F1F22" stroke-miterlimit="10"/>
<path d="M163.2 7.59976C164.1 5.89976 166.3 5.69976 173.2 3.89976C178 2.69976 178.5 2.29976 180.4 1.89976C187 0.399758 205.5 -1.60024 209.1 5.49976C210.9 8.99976 207.9 14.2998 201.5 24.5998C194.3 36.0998 190.7 41.7998 186.9 42.1998C182.8 42.4998 176.9 33.2998 165.1 14.7998C164 13.0998 162 9.79976 163.2 7.59976Z" fill="#1F1F22" stroke="#1F1F22" stroke-miterlimit="10"/>
<path d="M74.2002 63.6996C89.3002 55.3996 124.2 103.6 134.1 118.7C136.5 122.3 139.1 126.6 137.6 130.2C134.2 138.3 111 139.3 94.1002 130.7C80.5002 123.8 74.1002 112.3 71.9002 107.7C70.1002 104.1 63.4002 90.0996 68.4002 74.3996C70.4002 68.2996 71.3002 65.2996 74.2002 63.6996Z" fill="#1F1F22"/>
<path d="M122.3 50.9998C123.7 44.1998 128.5 40.4998 130.1 39.2998C131.8 37.9998 138.5 33.2998 147.1 35.1998C154.9 36.8998 161.7 43.4998 162.7 51.8998C163.5 57.9998 161 63.8998 157.2 67.6998C149.4 75.4998 134.6 75.9998 126.9 67.8998C122.8 63.5998 121 56.9998 122.3 50.9998Z" fill="#1F1F22" stroke="#1F1F22" stroke-miterlimit="10"/>
<path d="M0.499982 149.3C1.39998 148.3 5.69998 153.1 12 153.9C18.5 154.7 22.9 150.5 41.4 136C54.5 125.6 58.3 123 58.8 123.6C59.4 124.2 56.2 128.4 52.4 133.2C48.9 137.7 45.6 141.9 42.3 145.1C33.9 153.4 17.1 163.5 6.99998 158C2.39998 155.6 -0.300018 150.3 0.499982 149.3Z" fill="#1F1F22" stroke="#1F1F22" stroke-miterlimit="10"/>
<path d="M64.5001 218.3C65.3001 217.3 59.5001 215.2 57.2001 210.2C54.8001 205.1 57.6001 200.2 66.7001 180.7C73.2001 166.8 74.7001 162.9 74.0001 162.6C73.2001 162.3 70.1001 166.2 66.5001 170.8C63.1001 175 60.0001 179 57.7001 182.7C52.1001 192 46.7001 208.9 54.6001 215.6C58.0001 218.7 63.8001 219.3 64.5001 218.3Z" fill="#1F1F22" stroke="#1F1F22" stroke-miterlimit="10"/>
<path d="M3.80005 210.3C2.00005 208.4 43.5 163.7 45.5 165.4C46.5 166.2 37.6001 179.2 29.0001 188.8C18.4001 200.6 4.70005 211.3 3.80005 210.3Z" fill="#1F1F22" stroke="#1F1F22" stroke-miterlimit="10"/>
</svg>
