<svg width="359" height="38" viewBox="0 0 359 38" fill="none" xmlns="http://www.w3.org/2000/svg">
<path fill-rule="evenodd" clip-rule="evenodd" d="M66.9204 19.2654V4H68.9142L77.9089 14.386V4.33586H80.7886V19.556H78.7949L69.8009 9.17076V19.2654H66.9204ZM0.454102 4.33532V19.2657H3.33381V6.84259H8.2962V4.33532H0.454102ZM14.8684 35.4799H13.6886V28.2135H14.8684V35.4799ZM11.2511 35.4799H12.4308V31.2793H11.2511V35.4799ZM11.8402 28.7962C12.2275 28.7962 12.5468 29.1164 12.5468 29.5039C12.5468 29.8921 12.2275 30.2123 11.8402 30.2123C11.4537 30.2123 11.1344 29.8921 11.1344 29.5039C11.1344 29.1164 11.4537 28.7962 11.8402 28.7962ZM2.25382 34.452H1.7119V32.6672H2.17652C2.44709 32.6672 2.76637 32.6672 3.03695 32.793C3.44359 32.9773 3.51085 33.3265 3.51085 33.5303C3.51085 33.7826 3.42426 34.0927 3.11426 34.277C2.83363 34.4419 2.48575 34.452 2.25382 34.452ZM2.06983 31.6971H1.7119V30.0381H2.07988C2.59243 30.0381 3.047 30.2607 3.047 30.8528C3.047 31.6768 2.2631 31.6971 2.06983 31.6971ZM3.62758 29.4172C3.10498 29.0094 2.40844 29.0094 2.05051 29.0094H0.454102V35.4799H2.62104C3.18229 35.4799 3.77215 35.3831 4.25609 34.9566C4.70061 34.559 4.8073 34.0248 4.8073 33.6467C4.8073 33.3069 4.72999 32.8031 4.34268 32.4337C4.17801 32.279 3.92676 32.0939 3.5008 32.0268C3.67551 31.9299 4.22672 31.5901 4.22672 30.7559C4.22672 30.2123 4.00484 29.7077 3.62758 29.4172ZM7.10983 33.6565V31.2796H5.93011V33.8502C5.93011 34.2282 5.97805 34.7336 6.44266 35.1405C6.82998 35.4803 7.44844 35.6162 7.96176 35.6162C8.47431 35.6162 9.09277 35.4803 9.48008 35.1405C9.9447 34.7336 9.99263 34.2282 9.99263 33.8502V31.2796H8.81215V33.6565C8.81215 33.8791 8.79359 34.1806 8.56089 34.393C8.41556 34.5196 8.18441 34.6071 7.96176 34.6071C7.73834 34.6071 7.50719 34.5196 7.36185 34.393C7.12916 34.1806 7.10983 33.8791 7.10983 33.6565ZM17.1319 33.375C17.1319 34.0444 17.6159 34.5677 18.2931 34.5677C18.9703 34.5677 19.4535 34.0444 19.4535 33.375C19.4535 32.7056 18.9703 32.1909 18.2931 32.1909C17.6159 32.1909 17.1319 32.7056 17.1319 33.375ZM19.3383 28.2144H20.518V35.48H19.3383V34.9371C18.9123 35.5479 18.3511 35.6159 18.0511 35.6159C16.7639 35.6159 15.9136 34.6067 15.9136 33.375C15.9136 32.1331 16.7554 31.1442 17.9931 31.1442C18.3116 31.1442 18.9409 31.202 19.3383 31.823V28.2144ZM22.9555 35.4799H21.7758V31.2793H22.9555V35.4799ZM23.0722 29.5039C23.0722 29.1164 22.753 28.7962 22.3664 28.7962C21.9791 28.7962 21.6598 29.1164 21.6598 29.5039C21.6598 29.8921 21.9791 30.2123 22.3664 30.2123C22.753 30.2123 23.0722 29.8921 23.0722 29.5039ZM24.2135 31.2796H25.3932V31.8225C25.6158 31.5124 26.0124 31.1437 26.6896 31.1437C27.0576 31.1437 27.5995 31.2507 27.9281 31.6577C28.2188 32.0162 28.2567 32.4341 28.2567 32.8418V35.4803H27.0769V33.1902C27.0769 32.9574 27.0669 32.5895 26.8543 32.3661C26.6711 32.1724 26.4198 32.1521 26.3031 32.1521C25.9939 32.1521 25.7519 32.2591 25.5779 32.5216C25.4032 32.7926 25.3932 33.0933 25.3932 33.3362V35.4803H24.2135V31.2796ZM31.6815 34.5677C31.0042 34.5677 30.5211 34.0444 30.5211 33.375C30.5211 32.7056 31.0042 32.1909 31.6815 32.1909C32.3587 32.1909 32.8426 32.7056 32.8426 33.375C32.8426 34.0444 32.3587 34.5677 31.6815 34.5677ZM33.8871 31.2793H32.7066V31.823C32.5427 31.5699 32.1755 31.1442 31.3916 31.1442C30.0858 31.1442 29.3019 32.1909 29.3019 33.375C29.3019 34.6067 30.1438 35.6159 31.4202 35.6159C31.7294 35.6159 32.3007 35.5386 32.7066 34.9176V35.5479C32.7066 35.7909 32.688 36.7321 31.6722 36.7321C31.1496 36.7321 30.7723 36.4509 30.6857 35.9752H29.4086C29.554 37.0711 30.4824 37.7404 31.6629 37.7404C32.378 37.7404 32.9972 37.4788 33.4132 37.0039C33.8874 36.4511 33.8872 35.8705 33.8871 35.3544L33.8871 35.3253V31.2793ZM40.8814 30.4841C40.5041 29.9795 40.0596 29.9311 39.8269 29.9311C39.1505 29.9311 38.9371 30.3584 38.9371 30.688C38.9371 30.8426 38.9858 30.9887 39.1404 31.1238C39.295 31.2699 39.5084 31.3472 39.9143 31.4933C40.4168 31.6682 40.8914 31.8416 41.2192 32.1431C41.5099 32.4048 41.7712 32.8422 41.7712 33.5007C41.7712 34.7629 40.8621 35.626 39.527 35.626C38.3372 35.626 37.6414 34.898 37.302 34.4036L38.1246 33.6178C38.4338 34.2481 39.0245 34.4809 39.479 34.4809C40.0496 34.4809 40.4755 34.1318 40.4755 33.5889C40.4755 33.3562 40.3974 33.171 40.2235 33.0062C39.9927 32.7932 39.6305 32.6689 39.2782 32.5481L39.227 32.5305C38.8892 32.4149 38.4818 32.2587 38.154 31.9682C37.9406 31.7838 37.6414 31.4253 37.6414 30.7653C37.6414 29.8147 38.2792 28.8642 39.7109 28.8642C40.1176 28.8642 40.8814 28.9415 41.5393 29.621L40.8814 30.4841ZM44.016 32.8123V28.2141H42.8363V35.4805H44.016V33.8019L44.142 33.6855L45.699 35.4805H47.266L45.1478 33.1224L47.1114 31.2798H45.583L44.016 32.8123ZM47.9244 35.4799H49.1041V31.2793H47.9244V35.4799ZM48.5142 28.7962C48.9015 28.7962 49.2208 29.1164 49.2208 29.5039C49.2208 29.8921 48.9015 30.2123 48.5142 30.2123C48.1277 30.2123 47.8084 29.8921 47.8084 29.5039C47.8084 29.1164 48.1277 28.7962 48.5142 28.7962ZM51.5423 35.4799H50.3626V28.2135H51.5423V35.4799ZM52.8002 35.4799H53.9799V28.2135H52.8002V35.4799ZM56.8334 31.9977C56.9587 31.9977 57.2401 32.0164 57.5199 32.2789L58.1005 31.59C57.5679 31.183 57.0754 31.144 56.7654 31.144C56.4276 31.144 56.0016 31.183 55.6723 31.4447C55.4311 31.6478 55.2378 31.9875 55.2378 32.3945C55.2378 32.735 55.3631 32.9967 55.5571 33.2006C55.8083 33.463 56.1562 33.5981 56.4562 33.7044L56.7275 33.802C56.8821 33.8598 57.0947 33.9668 57.0947 34.2285C57.0947 34.5198 56.8427 34.6846 56.5142 34.6846C56.1663 34.6846 55.8184 34.4714 55.5857 34.1996L54.9665 34.9174C55.2278 35.1986 55.721 35.6157 56.5915 35.6157C57.104 35.6157 57.5107 35.4805 57.8493 35.1697C58.1871 34.8596 58.3131 34.4808 58.3131 34.1027C58.3131 33.8309 58.2265 33.5786 58.1005 33.4036C57.8585 33.0748 57.3653 32.91 57.0368 32.803L56.7561 32.7155C56.4276 32.6085 56.3789 32.4437 56.3789 32.3367C56.3789 32.1328 56.5528 31.9977 56.8334 31.9977ZM59.9388 34.0928C60.3648 34.0928 60.6941 34.4232 60.6941 34.8497C60.6941 35.2769 60.3648 35.6057 59.9388 35.6057C59.5136 35.6057 59.1843 35.2769 59.1843 34.8497C59.1843 34.4232 59.5136 34.0928 59.9388 34.0928ZM66.2169 34.452H65.675V32.6672H66.1396C66.4102 32.6672 66.7294 32.6672 67.0008 32.793C67.4067 32.9773 67.4739 33.3265 67.4739 33.5303C67.4739 33.7826 67.3873 34.0927 67.0773 34.277C66.7975 34.4419 66.4488 34.452 66.2169 34.452ZM66.0329 31.6971H65.675V30.0381H66.043C66.5555 30.0381 67.0108 30.2607 67.0108 30.8528C67.0108 31.6768 66.2269 31.6971 66.0329 31.6971ZM67.5907 29.4172C67.0681 29.0094 66.3715 29.0094 66.0136 29.0094H64.4179V35.4799H66.5849C67.1454 35.4799 67.7352 35.3831 68.2192 34.9566C68.6637 34.559 68.7704 34.0248 68.7704 33.6467C68.7704 33.3069 68.6931 32.8031 68.3057 32.4337C68.1419 32.279 67.8898 32.0939 67.4646 32.0268C67.6386 31.9299 68.1906 31.5901 68.1906 30.7559C68.1906 30.2123 67.9679 29.7077 67.5907 29.4172ZM71.0729 31.2796V33.6565C71.0729 33.8791 71.0922 34.1806 71.3242 34.393C71.4703 34.5196 71.7014 34.6071 71.9248 34.6071C72.1467 34.6071 72.3786 34.5196 72.524 34.393C72.7567 34.1806 72.7752 33.8791 72.7752 33.6565V31.2796H73.9557V33.8502C73.9557 34.2282 73.907 34.7336 73.4424 35.1405C73.0558 35.4803 72.4374 35.6162 71.9248 35.6162C71.4115 35.6162 70.7931 35.4803 70.4057 35.1405C69.9411 34.7336 69.8932 34.2282 69.8932 33.8502V31.2796H71.0729ZM76.3937 35.4799H75.214V31.2793H76.3937V35.4799ZM76.5104 29.5039C76.5104 29.1164 76.1911 28.7962 75.8046 28.7962C75.4173 28.7962 75.0972 29.1164 75.0972 29.5039C75.0972 29.8921 75.4173 30.2123 75.8046 30.2123C76.1911 30.2123 76.5104 29.8921 76.5104 29.5039ZM77.6522 35.4799H78.832V28.2135H77.6522V35.4799ZM82.2562 34.5677C81.5789 34.5677 81.0958 34.0444 81.0958 33.375C81.0958 32.7056 81.5789 32.1909 82.2562 32.1909C82.9334 32.1909 83.4173 32.7056 83.4173 33.375C83.4173 34.0444 82.9334 34.5677 82.2562 34.5677ZM84.4811 28.2144H83.3013V31.823C82.9048 31.202 82.2755 31.1442 81.9562 31.1442C80.7185 31.1442 79.8766 32.1331 79.8766 33.375C79.8766 34.6067 80.7278 35.6159 82.0142 35.6159C82.3141 35.6159 82.8754 35.5479 83.3013 34.9371V35.48H84.4811V28.2144ZM85.7386 35.4799H86.9184V31.2793H85.7386V35.4799ZM86.3293 28.7962C86.7158 28.7962 87.0351 29.1164 87.0351 29.5039C87.0351 29.8921 86.7158 30.2123 86.3293 30.2123C85.9419 30.2123 85.6227 29.8921 85.6227 29.5039C85.6227 29.1164 85.9419 28.7962 86.3293 28.7962ZM89.3562 31.2796H88.1765V35.4803H89.3562V33.3362C89.3562 33.0933 89.3662 32.7926 89.5409 32.5216C89.7141 32.2591 89.9568 32.1521 90.2661 32.1521C90.382 32.1521 90.6333 32.1724 90.8173 32.3661C91.0299 32.5895 91.0399 32.9574 91.0399 33.1902V35.4803H92.2197V32.8418C92.2197 32.4341 92.181 32.0162 91.8911 31.6577C91.5618 31.2507 91.0206 31.1437 90.6526 31.1437C89.9754 31.1437 89.5788 31.5124 89.3562 31.8225V31.2796ZM94.4849 33.375C94.4849 34.0444 94.9681 34.5677 95.6453 34.5677C96.3225 34.5677 96.8065 34.0444 96.8065 33.375C96.8065 32.7056 96.3225 32.1909 95.6453 32.1909C94.9681 32.1909 94.4849 32.7056 94.4849 33.375ZM96.6704 31.2793H97.8509V35.3253V35.3544C97.8511 35.8705 97.8513 36.4511 97.377 37.0039C96.9611 37.4788 96.3419 37.7404 95.6268 37.7404C94.4455 37.7404 93.517 37.0711 93.3725 35.9752H94.6488C94.7362 36.4509 95.1127 36.7321 95.6353 36.7321C96.6519 36.7321 96.6704 35.7909 96.6704 35.5479V34.9176C96.2645 35.5386 95.6932 35.6159 95.384 35.6159C94.1077 35.6159 93.2658 34.6067 93.2658 33.375C93.2658 32.1909 94.0497 31.1442 95.3554 31.1442C96.1393 31.1442 96.5057 31.5699 96.6704 31.823V31.2793ZM104.759 35.6257C105.454 35.6257 105.967 35.4515 106.354 35.2476V33.7722C105.977 34.2197 105.445 34.4814 104.845 34.4814C103.761 34.4814 102.659 33.7042 102.659 32.2694C102.659 31.0759 103.501 30.0089 104.797 30.0089C105.029 30.0089 105.764 30.0566 106.354 30.7369V29.2614C105.764 28.942 105.223 28.8638 104.768 28.8638C103.85 28.8638 103.046 29.1068 102.398 29.7176C101.846 30.2315 101.363 31.0759 101.363 32.2498C101.363 33.2004 101.652 34.0057 102.398 34.7235C102.94 35.2375 103.627 35.6257 104.759 35.6257ZM108.483 33.375C108.483 34.0444 108.966 34.5677 109.644 34.5677C110.321 34.5677 110.805 34.0444 110.805 33.375C110.805 32.7056 110.321 32.1909 109.644 32.1909C108.966 32.1909 108.483 32.7056 108.483 33.375ZM110.689 31.2793H111.869V35.48H110.689V34.9371C110.263 35.5479 109.702 35.6159 109.402 35.6159C108.115 35.6159 107.264 34.6067 107.264 33.375C107.264 32.1331 108.106 31.1442 109.344 31.1442C109.663 31.1442 110.292 31.202 110.689 31.823V31.2793ZM114.306 31.2796H113.126V35.4803H114.306V33.4628C114.306 33.1714 114.316 32.8121 114.539 32.5309C114.771 32.2396 115.1 32.1912 115.323 32.1912C115.564 32.1912 115.719 32.2396 115.874 32.3466L116.028 31.2406C115.893 31.1922 115.729 31.1437 115.526 31.1437C115.245 31.1437 115.013 31.2117 114.829 31.3281C114.742 31.3765 114.491 31.5515 114.306 31.91V31.2796ZM119.772 32.822C119.676 32.2502 119.211 31.9784 118.777 31.9784C118.341 31.9784 117.887 32.2588 117.79 32.822H119.772ZM120.855 34.306C120.73 34.6169 120.256 35.6159 118.795 35.6159C118.119 35.6159 117.605 35.4222 117.19 35.0238C116.726 34.588 116.532 34.0444 116.532 33.3851C116.532 32.5502 116.871 32.0362 117.171 31.7355C117.663 31.2504 118.244 31.1442 118.747 31.1442C119.598 31.1442 120.092 31.4832 120.382 31.8323C120.827 32.3658 120.885 33.0258 120.885 33.482V33.5788H117.751C117.751 33.8311 117.819 34.1029 117.954 34.2873C118.08 34.4622 118.341 34.6849 118.795 34.6849C119.241 34.6849 119.579 34.4708 119.772 34.1318L120.855 34.306ZM123.962 31.9784C124.396 31.9784 124.861 32.2502 124.957 32.822H122.975C123.072 32.2588 123.526 31.9784 123.962 31.9784ZM123.98 35.6159C125.441 35.6159 125.915 34.6169 126.04 34.306L124.957 34.1318C124.764 34.4708 124.426 34.6849 123.98 34.6849C123.526 34.6849 123.265 34.4622 123.139 34.2873C123.004 34.1029 122.936 33.8311 122.936 33.5788H126.07V33.482C126.07 33.0258 126.012 32.3658 125.567 31.8323C125.277 31.4832 124.783 31.1442 123.932 31.1442C123.429 31.1442 122.848 31.2504 122.356 31.7355C122.056 32.0362 121.717 32.5502 121.717 33.3851C121.717 34.0444 121.911 34.588 122.375 35.0238C122.79 35.4222 123.304 35.6159 123.98 35.6159ZM127.115 31.2796H128.295V31.91C128.479 31.5515 128.731 31.3765 128.817 31.3281C129.001 31.2117 129.233 31.1437 129.515 31.1437C129.717 31.1437 129.881 31.1922 130.017 31.2406L129.862 32.3466C129.708 32.2396 129.552 32.1912 129.311 32.1912C129.089 32.1912 128.759 32.2396 128.527 32.5309C128.305 32.8121 128.295 33.1714 128.295 33.4628V35.4803H127.115V31.2796ZM132.328 31.9977C132.454 31.9977 132.735 32.0164 133.016 32.2789L133.596 31.59C133.064 31.183 132.57 31.144 132.26 31.144C131.923 31.144 131.497 31.183 131.168 31.4447C130.926 31.6478 130.733 31.9875 130.733 32.3945C130.733 32.735 130.859 32.9967 131.052 33.2006C131.303 33.463 131.651 33.5981 131.951 33.7044L132.223 33.802C132.377 33.8598 132.59 33.9668 132.59 34.2285C132.59 34.5198 132.338 34.6846 132.009 34.6846C131.661 34.6846 131.313 34.4714 131.081 34.1996L130.461 34.9174C130.723 35.1986 131.217 35.6157 132.087 35.6157C132.6 35.6157 133.006 35.4805 133.345 35.1697C133.683 34.8596 133.808 34.4808 133.808 34.1027C133.808 33.8309 133.722 33.5786 133.596 33.4036C133.354 33.0748 132.861 32.91 132.532 32.803L132.252 32.7155C131.923 32.6085 131.874 32.4437 131.874 32.3367C131.874 32.1328 132.049 31.9977 132.328 31.9977ZM15.896 19.2657V4.33532H18.7757V16.7584H23.3392V19.2657H15.896ZM33.3331 4.33563V13.7149C33.3331 14.856 33.7088 15.5496 34.042 15.9308C34.4625 16.4447 35.2379 16.9595 36.3898 16.9595C37.5417 16.9595 38.3171 16.4447 38.7376 15.9308C39.0708 15.5496 39.4466 14.856 39.4466 13.7149V4.33563H42.327V13.468C42.327 14.8779 42.1059 16.3104 41.2192 17.4523C40.1555 18.863 38.2954 19.6011 36.3898 19.6011C34.4842 19.6011 32.6242 18.863 31.5604 17.4523C30.6745 16.3104 30.4526 14.8779 30.4526 13.468V4.33563H33.3331ZM53.6934 6.8429H59.0107V4.33563H50.813V19.2652H59.0107V16.7579H53.6934V12.6846H58.7888V10.1781H53.6934V6.8429ZM93.9282 19.2652V6.8429H97.2517V4.33563H87.7258V6.8429H91.0477V19.2652H93.9282ZM107.068 11.2074H107.888C108.44 11.2074 110.723 11.1403 110.723 8.9462C110.723 6.73105 108.463 6.7084 107.931 6.7084H107.068V4.33547H108.463C110.501 4.33547 111.541 4.87364 112.229 5.45554C113.358 6.41706 113.691 7.69334 113.691 8.81263C113.691 10.2678 113.115 11.5433 111.963 12.3267C111.587 12.5946 111.055 12.8414 110.345 12.9758L114.954 19.2651H111.365L107.421 13.2671H107.068V11.2074ZM124.903 13.7149V4.33563H122.021V13.468C122.021 14.8779 122.244 16.3104 123.13 17.4523C124.193 18.863 126.055 19.6011 127.959 19.6011C129.864 19.6011 131.726 18.863 132.789 17.4523C133.676 16.3104 133.896 14.8779 133.896 13.468V4.33563H131.016V13.7149C131.016 14.856 130.64 15.5496 130.308 15.9308C129.887 16.4447 129.111 16.9595 127.959 16.9595C126.807 16.9595 126.032 16.4447 125.611 15.9308C125.278 15.5496 124.903 14.856 124.903 13.7149ZM149.65 7.73833C148.785 6.57452 147.767 6.46205 147.234 6.46205C145.683 6.46205 145.197 7.44699 145.197 8.20854C145.197 8.56628 145.308 8.90214 145.663 9.21536C146.016 9.55122 146.504 9.73009 147.434 10.0652C148.586 10.469 149.671 10.872 150.425 11.5656C151.089 12.1702 151.687 13.177 151.687 14.6993C151.687 17.6089 149.605 19.6014 146.549 19.6014C143.823 19.6014 142.229 17.9221 141.452 16.7809L143.336 14.968C144.045 16.4224 145.397 16.9598 146.437 16.9598C147.745 16.9598 148.719 16.1537 148.719 14.9008C148.719 14.3627 148.542 13.9378 148.143 13.5574C147.615 13.067 146.785 12.7801 145.981 12.5021L145.862 12.4607C145.086 12.1921 144.156 11.8343 143.402 11.1626C142.914 10.7377 142.229 9.90896 142.229 8.38741C142.229 6.19335 143.69 4.00008 146.968 4.00008C147.9 4.00008 149.65 4.17895 151.155 5.74579L149.65 7.73833ZM164.185 6.46205C164.716 6.46205 165.736 6.57452 166.599 7.73833L168.106 5.74579C166.599 4.17895 164.849 4.00008 163.919 4.00008C160.639 4.00008 159.177 6.19335 159.177 8.38741C159.177 9.90896 159.865 10.7377 160.353 11.1626C161.106 11.8343 162.036 12.1921 162.811 12.4607L162.927 12.5007C163.733 12.7791 164.565 13.0662 165.092 13.5574C165.492 13.9378 165.669 14.3627 165.669 14.9008C165.669 16.1537 164.693 16.9598 163.388 16.9598C162.346 16.9598 160.994 16.4224 160.286 14.968L158.403 16.7809C159.177 17.9221 160.772 19.6014 163.497 19.6014C166.555 19.6014 168.638 17.6089 168.638 14.6993C168.638 13.177 168.039 12.1702 167.375 11.5656C166.621 10.872 165.536 10.469 164.384 10.0652C163.454 9.73009 162.966 9.55122 162.611 9.21536C162.257 8.90214 162.146 8.56628 162.146 8.20854C162.146 7.44699 162.634 6.46205 164.185 6.46205ZM176.282 19.2651H179.161V4.33547H176.282V19.2651ZM193.474 8.38741L195.556 13.7589H191.348L193.474 8.38741ZM190.439 16.1318H196.399L197.705 19.2655H200.806L194.582 4.02273H192.411L186.009 19.2655H189.131L190.439 16.1318Z" fill="#1F1F22"/>
<path fill-rule="evenodd" clip-rule="evenodd" d="M0.475586 12.6851H8.00768V10.1724H0.475586V12.6851Z" fill="#FA1100"/>
<path fill-rule="evenodd" clip-rule="evenodd" d="M104.209 19.2641H107.09V4.33447H104.209V19.2641Z" fill="#FA1100"/>
<rect x="211" width="1" height="24" fill="#1F1F22"/>
<path d="M229.136 8.328V10.12H225.296V12.504H228.976V14.296H225.296V17.208H229.136V19H223.216V8.328H229.136ZM231.666 19V12.072H233.618V12.968C234.151 12.2213 234.866 11.848 235.762 11.848C236.668 11.848 237.351 12.1307 237.81 12.696C238.172 13.144 238.354 13.7947 238.354 14.648V19H236.402V15.224C236.402 14.5733 236.279 14.12 236.034 13.864C235.81 13.6293 235.506 13.512 235.122 13.512C234.588 13.512 234.188 13.7147 233.922 14.12C233.719 14.44 233.618 14.888 233.618 15.464V19H231.666ZM246.292 12.968V12.072H248.244V18.744C248.244 19.1493 248.234 19.4587 248.212 19.672C248.202 19.8853 248.132 20.1733 248.004 20.536C247.887 20.8987 247.706 21.224 247.46 21.512C246.746 22.3227 245.78 22.728 244.564 22.728C243.572 22.728 242.73 22.4667 242.036 21.944C241.354 21.4213 240.954 20.712 240.836 19.816H242.948C243.023 20.2107 243.204 20.5147 243.492 20.728C243.78 20.952 244.143 21.064 244.58 21.064C244.9 21.064 245.172 21.0053 245.396 20.888C245.631 20.7707 245.802 20.6373 245.908 20.488C246.026 20.3493 246.111 20.1733 246.164 19.96C246.228 19.7467 246.266 19.5813 246.276 19.464C246.287 19.3573 246.292 19.24 246.292 19.112V18.072C245.791 18.84 245.082 19.224 244.164 19.224C243.13 19.224 242.287 18.8667 241.636 18.152C240.986 17.4373 240.66 16.5627 240.66 15.528C240.66 14.5147 240.975 13.6507 241.604 12.936C242.234 12.2107 243.071 11.848 244.116 11.848C245.076 11.848 245.802 12.2213 246.292 12.968ZM245.972 14.136C245.61 13.7627 245.151 13.576 244.596 13.576C244.042 13.576 243.583 13.7627 243.22 14.136C242.858 14.5093 242.676 14.9733 242.676 15.528C242.676 16.0827 242.858 16.552 243.22 16.936C243.583 17.3093 244.042 17.496 244.596 17.496C245.151 17.496 245.61 17.3093 245.972 16.936C246.335 16.552 246.516 16.0827 246.516 15.528C246.516 14.9733 246.335 14.5093 245.972 14.136ZM250.906 7.016H252.858V19H250.906V7.016ZM255.519 12.072H257.471V19H255.519V12.072ZM255.663 9.976C255.439 9.74133 255.327 9.464 255.327 9.144C255.327 8.824 255.439 8.552 255.663 8.328C255.897 8.09333 256.175 7.976 256.495 7.976C256.815 7.976 257.087 8.09333 257.311 8.328C257.545 8.552 257.663 8.824 257.663 9.144C257.663 9.464 257.545 9.74133 257.311 9.976C257.087 10.2 256.815 10.312 256.495 10.312C256.175 10.312 255.897 10.2 255.663 9.976ZM264.867 12.584L263.907 13.72C263.576 13.4107 263.198 13.256 262.771 13.256C262.536 13.256 262.35 13.3093 262.211 13.416C262.083 13.512 262.019 13.6453 262.019 13.816C262.019 14.0933 262.227 14.3013 262.643 14.44L263.107 14.584C264.014 14.872 264.6 15.2027 264.867 15.576C265.102 15.896 265.219 16.28 265.219 16.728C265.219 17.432 264.963 18.0187 264.451 18.488C263.918 18.9787 263.224 19.224 262.371 19.224C261.294 19.224 260.398 18.84 259.683 18.072L260.707 16.888C261.166 17.4213 261.678 17.688 262.243 17.688C262.52 17.688 262.75 17.624 262.931 17.496C263.112 17.3573 263.203 17.1707 263.203 16.936C263.203 16.616 263 16.3813 262.595 16.232L262.147 16.072C261.454 15.8267 260.958 15.5493 260.659 15.24C260.307 14.8667 260.131 14.424 260.131 13.912C260.131 13.272 260.371 12.7493 260.851 12.344C261.267 12.0133 261.87 11.848 262.659 11.848C263.491 11.848 264.227 12.0933 264.867 12.584ZM267.4 19V7.016H269.352V12.968C269.885 12.2213 270.6 11.848 271.496 11.848C272.403 11.848 273.085 12.1307 273.544 12.696C273.907 13.144 274.088 13.7947 274.088 14.648V19H272.136V15.224C272.136 14.5733 272.013 14.12 271.768 13.864C271.544 13.6293 271.24 13.512 270.856 13.512C270.323 13.512 269.923 13.7147 269.656 14.12C269.453 14.44 269.352 14.888 269.352 15.464V19H267.4ZM281.569 8.328H283.649V19H281.569V8.328ZM286.597 19V12.072H288.549V12.856C289.082 12.184 289.77 11.848 290.613 11.848C291.647 11.848 292.378 12.2693 292.805 13.112C293.327 12.2693 294.069 11.848 295.029 11.848C295.839 11.848 296.463 12.1307 296.901 12.696C297.103 12.9627 297.231 13.24 297.285 13.528C297.349 13.816 297.381 14.1893 297.381 14.648V19H295.429V15.224C295.429 14.5733 295.322 14.12 295.109 13.864C294.917 13.6293 294.65 13.512 294.309 13.512C293.818 13.512 293.461 13.7147 293.237 14.12C293.055 14.4187 292.965 14.8667 292.965 15.464V19H291.013V15.224C291.013 14.5733 290.906 14.12 290.693 13.864C290.501 13.6293 290.234 13.512 289.893 13.512C289.402 13.512 289.045 13.7147 288.821 14.12C288.639 14.4187 288.549 14.8667 288.549 15.464V19H286.597ZM300.037 19V12.072H301.989V12.856C302.523 12.184 303.211 11.848 304.053 11.848C305.088 11.848 305.819 12.2693 306.245 13.112C306.768 12.2693 307.509 11.848 308.469 11.848C309.28 11.848 309.904 12.1307 310.341 12.696C310.544 12.9627 310.672 13.24 310.725 13.528C310.789 13.816 310.821 14.1893 310.821 14.648V19H308.869V15.224C308.869 14.5733 308.763 14.12 308.549 13.864C308.357 13.6293 308.091 13.512 307.749 13.512C307.259 13.512 306.901 13.7147 306.677 14.12C306.496 14.4187 306.405 14.8667 306.405 15.464V19H304.453V15.224C304.453 14.5733 304.347 14.12 304.133 13.864C303.941 13.6293 303.675 13.512 303.333 13.512C302.843 13.512 302.485 13.7147 302.261 14.12C302.08 14.4187 301.989 14.8667 301.989 15.464V19H300.037ZM318.486 16.776L320.278 17.064C320.203 17.256 320.102 17.448 319.974 17.64C319.857 17.8213 319.67 18.0507 319.414 18.328C319.158 18.5947 318.811 18.8133 318.374 18.984C317.937 19.144 317.435 19.224 316.87 19.224C315.782 19.224 314.897 18.8987 314.214 18.248C313.489 17.5653 313.126 16.664 313.126 15.544C313.126 14.4347 313.478 13.528 314.182 12.824C314.843 12.1733 315.713 11.848 316.79 11.848C317.963 11.848 318.865 12.2267 319.494 12.984C320.049 13.6453 320.326 14.552 320.326 15.704V15.864H315.142C315.142 16.3333 315.254 16.7227 315.478 17.032C315.798 17.4693 316.262 17.688 316.87 17.688C317.595 17.688 318.134 17.384 318.486 16.776ZM315.206 14.616H318.486C318.411 14.168 318.214 13.8267 317.894 13.592C317.585 13.3467 317.233 13.224 316.838 13.224C316.454 13.224 316.102 13.3467 315.782 13.592C315.473 13.8373 315.281 14.1787 315.206 14.616ZM322.637 19V12.072H324.589V13.112C324.824 12.664 325.112 12.344 325.453 12.152C325.773 11.9493 326.157 11.848 326.605 11.848C326.861 11.848 327.139 11.9013 327.437 12.008L327.181 13.832C326.936 13.6613 326.632 13.576 326.269 13.576C325.704 13.576 325.272 13.7627 324.973 14.136C324.717 14.456 324.589 14.968 324.589 15.672V19H322.637ZM333.939 12.584L332.979 13.72C332.648 13.4107 332.27 13.256 331.843 13.256C331.608 13.256 331.422 13.3093 331.283 13.416C331.155 13.512 331.091 13.6453 331.091 13.816C331.091 14.0933 331.299 14.3013 331.715 14.44L332.179 14.584C333.086 14.872 333.672 15.2027 333.939 15.576C334.174 15.896 334.291 16.28 334.291 16.728C334.291 17.432 334.035 18.0187 333.523 18.488C332.99 18.9787 332.296 19.224 331.443 19.224C330.366 19.224 329.47 18.84 328.755 18.072L329.779 16.888C330.238 17.4213 330.75 17.688 331.315 17.688C331.592 17.688 331.822 17.624 332.003 17.496C332.184 17.3573 332.275 17.1707 332.275 16.936C332.275 16.616 332.072 16.3813 331.667 16.232L331.219 16.072C330.526 15.8267 330.03 15.5493 329.731 15.24C329.379 14.8667 329.203 14.424 329.203 13.912C329.203 13.272 329.443 12.7493 329.923 12.344C330.339 12.0133 330.942 11.848 331.731 11.848C332.563 11.848 333.299 12.0933 333.939 12.584ZM336.472 12.072H338.424V19H336.472V12.072ZM336.616 9.976C336.392 9.74133 336.28 9.464 336.28 9.144C336.28 8.824 336.392 8.552 336.616 8.328C336.85 8.09333 337.128 7.976 337.448 7.976C337.768 7.976 338.04 8.09333 338.264 8.328C338.498 8.552 338.616 8.824 338.616 9.144C338.616 9.464 338.498 9.74133 338.264 9.976C338.04 10.2 337.768 10.312 337.448 10.312C337.128 10.312 336.85 10.2 336.616 9.976ZM341.9 12.824C342.604 12.1733 343.538 11.848 344.7 11.848C345.863 11.848 346.796 12.1733 347.5 12.824C348.279 13.528 348.668 14.4347 348.668 15.544C348.668 16.6427 348.279 17.544 347.5 18.248C346.796 18.8987 345.863 19.224 344.7 19.224C343.538 19.224 342.604 18.8987 341.9 18.248C341.122 17.544 340.732 16.6427 340.732 15.544C340.732 14.4347 341.122 13.528 341.9 12.824ZM343.308 16.92C343.682 17.304 344.146 17.496 344.7 17.496C345.255 17.496 345.719 17.304 346.092 16.92C346.466 16.536 346.652 16.0773 346.652 15.544C346.652 15 346.466 14.536 346.092 14.152C345.719 13.768 345.255 13.576 344.7 13.576C344.146 13.576 343.682 13.768 343.308 14.152C342.935 14.536 342.748 15 342.748 15.544C342.748 16.0773 342.935 16.536 343.308 16.92ZM350.978 19V12.072H352.93V12.968C353.463 12.2213 354.178 11.848 355.074 11.848C355.981 11.848 356.663 12.1307 357.122 12.696C357.485 13.144 357.666 13.7947 357.666 14.648V19H355.714V15.224C355.714 14.5733 355.591 14.12 355.346 13.864C355.122 13.6293 354.818 13.512 354.434 13.512C353.901 13.512 353.501 13.7147 353.234 14.12C353.031 14.44 352.93 14.888 352.93 15.464V19H350.978Z" fill="#1F1F22"/>
</svg>
