<svg width="320" height="445" viewBox="0 0 320 445" fill="none" xmlns="http://www.w3.org/2000/svg">
<path d="M29.7724 168.636C31.686 174.401 36.0545 187.264 46.3874 190.034C55.2848 192.266 65.0304 185.962 70.1971 179.777C83.2124 165.026 73.2494 148.493 77.485 125.755C83.3954 94.8137 113.875 62.6434 142.074 63.9502C165.821 65.1576 186.641 89.86 195.248 113.034C211.392 157.454 176.871 180.736 176.843 262.54C176.914 279.323 176.815 329.203 197.334 336.26C205.636 339.021 215.671 334.486 221.79 328.415C239.896 310.638 224.587 279.659 221.609 236.881C216.206 160.964 256.581 146.453 241.058 95.4047C231.453 64.3739 205.055 31.934 168.479 23.4551C134.417 15.4104 105.898 30.8069 94.8091 36.917C53.401 59.2754 39.3776 98.484 34.7143 111.366C22.9658 144.61 28.2616 163.687 29.7724 168.636Z" fill="white" stroke="#1F1F22" stroke-width="2" stroke-miterlimit="10"/>
<path d="M204.782 390.211C203.036 381.631 204.082 366.949 214.402 361.414C224.425 356.144 235.786 363.439 236.877 364.07C246.538 370.529 253.618 385.25 247.347 397.639C242.117 407.718 229.169 413.773 218.858 409.704C207.765 405.475 205.302 392.841 204.782 390.211Z" fill="white" stroke="#1F1F22" stroke-width="2" stroke-miterlimit="10"/>
</svg>
