<svg width="32" height="28" viewBox="0 0 32 28" fill="none" xmlns="http://www.w3.org/2000/svg">
<path d="M9.46866 23.2331C12.4253 15.9351 15.7572 8.74612 18.6798 1.44796C19.2341 0.0636114 19.8495 2.27642 20.0614 2.85791C21.0642 5.60948 20.7377 8.92279 21.1553 11.7876C21.7251 15.6966 22.938 19.5312 23.9762 23.3437C24.171 24.0592 25.1674 28.2934 23.3429 26.6059C21.4202 24.8277 19.6619 22.8524 17.5284 21.2979C13.1341 18.0962 8.11008 16.1746 3.25115 13.7781C3.07852 13.693 0.870948 12.2807 1.00594 12.1747C1.65557 11.6642 3.12015 11.7365 3.88442 11.5664C6.8874 10.8982 9.82917 9.97466 12.8365 9.29946C13.8533 9.07116 31.0907 4.24165 30.9996 5.81605C30.9431 6.79418 28.068 9.12931 27.3728 9.79709C24.0147 13.0224 20.1837 16.1101 16.2619 18.6715C13.3386 20.5807 10.2282 22.2307 7.28102 24.1178C6.342 24.719 9.7494 20.4753 10.5049 19.7497" stroke="#FA1100" stroke-linecap="round"/>
</svg>
