<svg width="32" height="32" viewBox="0 0 32 32" fill="none" xmlns="http://www.w3.org/2000/svg">
<path d="M7.50726 18.3361C9.1385 16.2882 17.5 2.78677 22.1322 3.00256C23.8129 3.08085 23.304 8.32658 23.3558 9.21576C23.6223 13.7932 23.7844 18.366 24.5211 22.8962C24.7217 24.1293 26.5143 29.7483 24.1715 27.4564C20.8974 24.2533 18.5723 20.3413 14.7906 17.5665C10.8879 14.7031 6.12797 11.7721 1.50578 10.1278C0.595299 9.8039 1.05722 9.61478 1.76798 9.61478C4.60868 9.61478 7.41058 9.36369 10.2458 9.21576C14.7718 8.97962 19.2948 8.98394 23.8219 8.70275C24.9958 8.62983 30.3072 7.85797 30.9888 9.35827C31.4508 10.3753 17.5275 18.2479 16.4221 18.9631C13.0495 21.1449 10.2696 23.9435 7.12852 26.4018C5.70524 27.5157 7.81251 24.7495 8.03166 24.4923" stroke="#FA1100" stroke-linecap="round"/>
</svg>
