<svg width="178" height="182" viewBox="0 0 178 182" fill="none" xmlns="http://www.w3.org/2000/svg">
<path d="M23.9044 44.7945C26.3562 39.5174 38.8603 12.6408 68.2818 3.19104C106.285 -9.08138 139.384 18.5316 145.268 23.4405C152.869 29.8222 166.599 41.2355 171.747 61.1169C178.49 87.6253 166.721 115.852 147.597 131.438C136.564 140.397 125.531 143.342 115.724 145.674C101.136 149.233 61.4168 159.051 35.1827 134.751C10.0518 111.679 11.5229 71.0575 23.9044 44.7945Z" fill="#1F1F22"/>
<path d="M90.4707 45.04C85.0768 45.899 83.6057 60.8714 82.625 70.5666C81.3991 82.9617 80.6635 90.4479 85.5671 97.1977C86.3026 98.1795 92.6773 106.77 101.259 105.543C108.246 104.561 112.905 97.5659 114.498 92.2888C117.195 83.2072 112.292 74.9847 103.588 60.2578C97.7035 50.4398 94.1484 44.4263 90.4707 45.04Z" fill="#EAEAEB" stroke="#1F1F22" stroke-width="0.7313" stroke-miterlimit="10"/>
<path d="M109.84 52.5261C103.833 48.7216 106.898 30.4357 112.66 28.8403C116.215 27.8585 121.854 33.2584 123.325 39.0264C123.693 40.2537 124.796 44.7944 122.222 48.5989C119.28 52.7715 113.028 54.4897 109.84 52.5261Z" fill="#EAEAEB" stroke="#1F1F22" stroke-width="0.7313" stroke-miterlimit="10"/>
<path d="M154.707 69.2167C145.881 66.2713 143.674 57.067 143.552 56.5761C141.222 46.39 148.578 33.2585 158.998 32.6449C166.844 32.154 173.709 38.9038 176.16 45.8991C176.528 47.1263 179.47 55.8398 173.831 63.0805C169.541 68.7258 161.817 71.5485 154.707 69.2167Z" fill="#EAEAEB" stroke="#1F1F22" stroke-width="1.1298" stroke-miterlimit="10"/>
<path d="M65.8303 67.0076C67.1787 60.2578 52.3454 49.2126 47.4418 52.0353C44.3771 53.7534 44.2545 61.2396 47.3192 66.394C47.9322 67.4985 50.2614 71.4257 54.7972 72.5302C59.5782 73.512 65.0947 70.5666 65.8303 67.0076Z" fill="#EAEAEB" stroke="#1F1F22" stroke-width="0.7122" stroke-miterlimit="10"/>
<path d="M0.612488 112.048C0.612488 112.048 0.857667 80.6302 15.9362 52.7718C18.5106 48.1083 21.8205 43.0766 25.253 43.4447C28.5629 43.8129 30.6469 48.8446 31.3825 50.5627C34.0794 57.1899 32.6084 62.5897 31.3825 71.6713C29.5436 85.171 30.1566 92.9026 30.1566 92.9026C30.2792 92.9026 27.5822 65.0442 43.2736 44.1811C44.7447 42.2175 53.2034 30.9269 58.9651 32.8905C63.1332 34.3632 64.3591 42.2175 64.2365 47.1265C63.9913 54.3672 60.6814 58.7853 52.9582 70.8122C42.6607 87.1346 40.6993 91.4299 40.6993 91.4299C40.6993 91.4299 64.3591 42.9538 80.0505 46.3901C84.2186 47.2492 87.7737 51.79 88.3866 55.9626C89.2447 61.7306 84.2186 66.3942 77.8439 73.0213C66.9334 84.4346 51.8549 99.8979 53.8163 103.089C55.41 105.666 65.9527 97.3207 82.3797 98.6706C86.3026 99.0388 98.8067 100.143 105.181 109.47C105.672 110.084 111.311 118.675 107.756 125.547C107.511 126.038 105.549 129.965 102.117 130.456C98.9293 130.947 97.0905 128.124 91.9417 124.443C89.8577 122.97 84.5863 119.288 78.4568 118.061C76.0051 117.57 66.9334 115.852 60.804 121.866C57.494 125.056 55.41 130.211 56.2681 135.365C57.7392 143.833 66.9334 149.233 73.921 148.497C79.4376 148.006 83.9734 143.588 86.6703 141.01C90.1029 137.697 89.7351 136.592 92.4321 134.752C97.0905 131.561 104.936 130.211 108.491 133.892C112.414 138.065 108.736 146.656 107.388 149.969C105.304 154.878 100.891 162.242 90.1029 169.114C76.2502 177.95 46.461 189.118 24.2723 173.901C13.607 166.66 8.94858 156.228 6.12902 149.969C0.489899 137.206 0.489899 126.529 0.612488 112.048Z" fill="#EAEAEB" stroke="#1F1F22" stroke-miterlimit="10"/>
</svg>
