<svg width="257" height="181" viewBox="0 0 257 181" fill="none" xmlns="http://www.w3.org/2000/svg">
<path d="M5.94562 113.263C7.51031 109.887 15.4902 92.6979 34.2665 86.6541C58.5191 78.805 79.6424 96.4655 83.3977 99.6051C88.2482 103.687 97.0104 110.986 100.296 123.702C104.599 140.656 97.0887 158.709 84.8841 168.677C77.843 174.407 70.8019 176.291 64.5432 177.782C55.2333 180.058 29.8853 186.338 13.1432 170.796C-2.89486 156.04 -1.87782 130.138 5.94562 113.263Z" fill="#1F1F22"/>
<path d="M48.5053 113.42C45.0629 113.969 44.1241 123.545 43.4982 129.746C42.7159 137.673 42.2465 142.461 45.3759 146.778C45.8453 147.406 49.9135 152.9 55.3899 152.194C59.8492 151.566 62.8221 147.092 63.8392 143.717C65.5604 137.909 62.431 132.65 56.8763 123.231C53.0428 116.873 50.7741 113.027 48.5053 113.42Z" fill="#EAEAEB" stroke="#1F1F22" stroke-width="0.7313" stroke-miterlimit="10"/>
<path d="M60.7877 118.207C56.9542 115.774 58.9101 104.079 62.5871 103.059C64.8559 102.431 68.4547 105.884 69.3935 109.573C69.6282 110.358 70.3323 113.262 68.6894 115.696C66.8117 118.364 62.8218 119.463 60.7877 118.207Z" fill="#EAEAEB" stroke="#1F1F22" stroke-width="0.7313" stroke-miterlimit="10"/>
<path d="M89.4998 128.882C83.8669 126.998 82.4587 121.111 82.3805 120.797C80.894 114.283 85.5881 105.884 92.238 105.492C97.245 105.178 101.626 109.495 103.191 113.969C103.425 114.754 105.303 120.327 101.704 124.957C98.9661 128.568 93.9591 130.373 89.4998 128.882Z" fill="#EAEAEB" stroke="#1F1F22" stroke-width="1.1298" stroke-miterlimit="10"/>
<path d="M32.7798 127.469C33.6404 123.152 24.1741 116.088 21.0447 117.893C19.0888 118.992 19.0106 123.78 20.9665 127.077C21.3576 127.783 22.8441 130.295 25.7387 131.001C28.7899 131.629 32.2322 129.745 32.7798 127.469Z" fill="#EAEAEB" stroke="#1F1F22" stroke-width="0.7122" stroke-miterlimit="10"/>
<path d="M7.82303 168.991C2.19015 167.107 0.781936 161.22 0.703701 160.906C-0.782752 154.392 3.91131 145.993 10.5612 145.601C15.5682 145.287 19.9494 149.604 21.5141 154.078C21.7488 154.863 23.6264 160.435 20.0276 165.066C17.2894 168.677 12.3606 170.482 7.82303 168.991Z" fill="#EAEAEB" stroke="#1F1F22" stroke-width="1.1298" stroke-miterlimit="10"/>
<path d="M251.054 29.0418C249.489 25.6667 241.509 8.47721 222.733 2.43341C198.48 -5.41568 177.357 12.2448 173.602 15.3844C168.751 19.4659 159.989 26.7656 156.703 39.4811C152.4 56.4351 159.911 74.4881 172.115 84.4564C179.156 90.1862 186.197 92.07 192.456 93.5613C201.766 95.8376 227.114 102.117 243.856 86.5757C259.894 71.8194 258.877 45.8389 251.054 29.0418Z" fill="#EAEAEB" stroke="#1F1F22" stroke-miterlimit="10"/>
<path d="M208.494 29.1988C211.936 29.7483 212.875 39.3241 213.501 45.5249C214.283 53.4525 214.753 58.2404 211.623 62.5574C211.154 63.1854 207.086 68.6797 201.609 67.9733C197.15 67.3454 194.177 62.8714 193.16 59.4963C191.439 53.688 194.568 48.4291 200.123 39.0102C203.956 32.6524 206.225 28.8064 208.494 29.1988Z" fill="#1F1F22" stroke="#1F1F22" stroke-width="0.7313" stroke-miterlimit="10"/>
<path d="M196.212 33.9867C200.045 31.5535 198.089 19.8584 194.412 18.838C192.144 18.2101 188.545 21.6637 187.606 25.3527C187.371 26.1376 186.667 29.0418 188.31 31.475C190.109 34.1437 194.178 35.2426 196.212 33.9867Z" fill="#1F1F22" stroke="#1F1F22" stroke-width="0.7313" stroke-miterlimit="10"/>
<path d="M167.499 44.6613C173.132 42.7775 174.54 36.8907 174.619 36.5767C176.105 30.062 171.411 21.6635 164.761 21.271C159.754 20.9571 155.373 25.2741 153.808 29.748C153.574 30.533 151.696 36.1058 155.295 40.7368C158.033 44.3473 163.04 46.1526 167.499 44.6613Z" fill="#1F1F22" stroke="#1F1F22" stroke-width="1.1298" stroke-miterlimit="10"/>
<path d="M224.219 43.2484C223.359 38.9314 232.825 31.8673 235.954 33.6725C237.91 34.7714 237.988 39.5594 236.033 42.856C235.641 43.5624 234.155 46.0741 231.26 46.7805C228.209 47.4085 224.689 45.5247 224.219 43.2484Z" fill="#1F1F22" stroke="#1F1F22" stroke-width="0.7122" stroke-miterlimit="10"/>
<path d="M249.176 84.7702C254.809 82.8864 256.217 76.9996 256.295 76.6856C257.782 70.1709 253.088 61.7724 246.438 61.3799C241.431 61.0659 237.05 65.383 235.485 69.8569C235.25 70.6418 233.373 76.2147 236.972 80.8457C239.71 84.3777 244.638 86.2615 249.176 84.7702Z" fill="#1F1F22" stroke="#1F1F22" stroke-width="1.1298" stroke-miterlimit="10"/>
<path d="M198.95 121.585C200.671 118.289 198.637 118.446 200.202 101.413C201.062 91.8371 202.158 86.4997 199.185 84.302C197.933 83.3601 195.508 83.2816 190.657 83.0461C187.762 82.8891 185.337 82.9676 183.616 83.0461C185.807 70.88 185.415 67.8974 184.633 67.6619C183.929 67.4264 182.834 69.3887 180.33 72.6853C177.357 76.6099 174.541 79.5925 172.585 81.5548C153.496 79.2001 139.022 79.1216 129.4 79.4355C124.627 79.5925 119.073 79.985 115.317 83.988C112.423 87.1277 112.11 91.0522 112.031 103.14C111.953 118.681 111.953 126.452 113.283 128.335C116.334 132.495 121.733 133.987 153.73 131.867C190.344 129.434 196.29 126.609 198.95 121.585Z" fill="#1F1F22" stroke="#1F1F22" stroke-width="0.83" stroke-miterlimit="10" stroke-linecap="round"/>
<path d="M76.2779 104.942C74.7132 108.003 76.5126 107.846 75.1044 123.545C74.3221 132.414 73.2268 137.281 76.0432 139.4C77.2167 140.263 79.4073 140.342 83.9449 140.577C86.6049 140.734 88.8737 140.656 90.4383 140.577C88.4042 151.801 88.7954 154.549 89.4995 154.784C90.2036 155.019 91.1425 153.214 93.4113 150.153C96.1495 146.464 98.7312 143.717 100.609 141.912C118.212 144.109 131.668 144.188 140.508 143.874C144.889 143.717 150.053 143.403 153.495 139.714C156.155 136.81 156.468 133.199 156.546 122.053C156.625 107.689 156.625 100.468 155.373 98.82C152.556 94.9739 147.549 93.5611 118.055 95.5234C84.2578 97.7211 78.7032 100.311 76.2779 104.942Z" fill="#EAEAEB" stroke="#1F1F22" stroke-miterlimit="10" stroke-linecap="round"/>
</svg>
