<svg width="233" height="203" viewBox="0 0 233 203" fill="none" xmlns="http://www.w3.org/2000/svg">
<path d="M20.0161 65.7185C28.9419 46.6047 44.6933 37.8442 50.4688 34.9241C58.3444 30.6766 74.0958 22.447 93.5225 27.2255C116.887 33.0658 127.388 53.5069 128.963 56.4271C133.951 66.5149 133.426 78.992 132.638 103.946C131.588 130.759 127.388 141.377 124.238 147.483C121.35 153.589 117.937 160.226 110.586 165.801C95.8852 176.95 77.7711 173.765 73.0457 172.968C48.106 168.721 33.9298 148.545 29.2044 141.643C16.0783 122.794 14.5031 104.212 14.2406 99.9641C13.7156 93.0619 13.1905 80.0539 20.0161 65.7185Z" fill="#1F1F22" stroke="#1F1F22" stroke-miterlimit="10"/>
<path d="M49.5741 30.5677C53.4879 20.6398 68.3602 18.2884 76.7096 22.4686C77.7533 22.9911 80.3625 24.2974 81.928 27.1713C84.7981 32.6578 81.928 40.4956 77.4924 44.6758C70.9694 50.9461 58.1844 52.2524 51.9224 45.1983C48.5304 41.2794 47.7477 35.2704 49.5741 30.5677Z" fill="#EAEAEB" stroke="#EAEAEB" stroke-miterlimit="10"/>
<path d="M88.7115 30.8289C92.3643 21.6848 106.193 19.3335 114.021 23.5136C115.064 24.0362 117.412 25.3425 118.978 27.9551C121.848 33.1803 118.978 40.4956 114.803 44.4145C108.802 50.4235 96.7999 51.4686 91.0597 44.6758C87.9287 40.7569 87.146 35.2704 88.7115 30.8289Z" fill="#EAEAEB" stroke="#EAEAEB" stroke-miterlimit="10"/>
<path d="M20.8727 38.6667C23.4819 31.8739 33.6577 30.3064 39.3979 33.1802C40.1807 33.7028 42.0071 34.4865 43.0508 36.5766C45.1381 40.4956 43.0508 45.7208 39.9198 48.5947C35.4841 53.0361 26.6129 53.8199 22.4382 48.8559C20.09 45.982 19.5681 41.8019 20.8727 38.6667Z" fill="#EAEAEB" stroke="#EAEAEB" stroke-miterlimit="10"/>
<path d="M2.34793 87.0001C6.78354 55.3875 23.4823 35.2704 31.0489 26.3875C37.5719 18.8109 55.8362 -2.35122 69.9258 1.82896C75.666 3.65778 79.0579 8.88301 87.1464 9.14427C94.1912 9.14427 96.0176 5.22535 100.975 4.96409C113.238 3.91905 126.284 26.6488 132.807 45.1983C134.894 51.4686 137.504 60.3515 138.286 97.9731C139.33 151.009 135.155 161.198 132.807 165.64C129.415 172.433 120.283 192.027 99.4095 199.081C77.7533 206.658 57.6626 195.946 49.8351 191.766C31.0489 181.838 21.395 166.946 16.6984 159.369C-1.82676 129.324 0.782418 98.2344 2.34793 87.0001Z" stroke="#1F1F22" stroke-miterlimit="10"/>
<path d="M20.3514 65.0541C29.2226 46.2433 44.8777 37.6217 50.6179 34.7478C58.4455 30.5677 74.1006 22.4686 93.4085 27.1713C116.63 32.919 127.067 53.0361 128.632 55.91C133.59 65.8379 133.068 78.1172 132.285 102.676C131.242 129.063 127.067 139.514 123.936 145.523C121.066 151.532 117.674 158.063 110.368 163.55C95.7568 174.523 77.7534 171.387 73.0569 170.604C48.0087 166.162 33.9191 146.306 29.2226 139.775C16.1767 121.225 14.6112 102.937 14.3503 98.7568C14.0894 91.9641 13.5675 79.1623 20.3514 65.0541Z" stroke="#1F1F22" stroke-miterlimit="10"/>
<path d="M26.3527 126.45C25.8309 104.243 40.1814 89.0901 43.8343 85.4324C48.009 81.2522 55.3147 73.6757 66.5341 71.8468C79.5801 69.7568 82.4502 77.8559 96.5397 77.3333C113.239 77.0721 114.543 65.054 134.895 62.1802C150.028 60.0901 163.857 64.5315 165.944 65.3153C179.512 70.018 181.86 75.7658 189.166 74.4595C200.907 72.3694 201.951 55.1261 213.17 54.0811C219.954 53.2973 226.738 59.3063 229.608 64.5315C236.131 76.2883 228.043 93.2703 217.345 101.369C203.777 111.559 185.774 107.64 178.99 106.072C161.508 102.414 158.116 93.7928 147.941 96.1441C137.243 98.4955 138.548 108.685 124.719 116.784C108.803 126.45 92.3651 120.964 90.7995 127.234C89.495 131.676 97.8443 134.027 102.802 145.784C104.106 148.919 108.542 159.631 104.628 166.685C98.6271 177.396 76.71 175.829 63.925 171.91C60.7939 170.865 38.0941 163.811 29.7447 141.865C28.9619 140.82 26.6137 134.811 26.3527 126.45Z" fill="#EAEAEB" stroke="#1F1F22" stroke-miterlimit="10"/>
<path d="M30.5276 125.144C28.9621 126.451 38.3552 140.559 52.1838 151.793C52.1838 151.793 66.2734 161.721 91.0606 163.55C94.4526 163.811 98.8882 163.811 100.715 161.198C102.28 158.847 102.28 155.189 100.715 153.883C99.41 153.099 97.8445 154.144 94.9744 154.928C89.4951 156.496 81.6676 155.451 78.2756 151.009C75.9274 147.874 75.9274 143.955 76.1883 139.775C76.4492 136.64 76.4492 135.072 77.4929 134.027C80.8848 131.415 89.2342 137.685 90.2779 136.379C91.0606 135.595 88.4515 131.937 85.0595 129.325C81.1457 126.451 78.5366 126.451 72.2745 124.622C68.3608 123.316 63.9251 121.225 55.3148 117.045C49.5746 114.171 48.0091 113.126 44.3563 112.865C39.1379 112.343 33.6586 113.649 33.3977 115.216C33.3977 116 35.2241 116.784 44.3563 119.919C44.3563 119.919 52.1838 122.793 64.9688 129.586C65.7516 130.108 67.3171 130.892 68.3608 132.46C70.9699 136.117 70.709 142.126 67.578 143.955C66.5343 144.739 64.9688 144.739 60.2723 143.171C53.7493 140.82 49.8356 137.685 45.139 134.027C40.9643 130.631 31.8322 124.099 30.5276 125.144Z" fill="#1F1F22" stroke="#1F1F22" stroke-miterlimit="10"/>
<path d="M65.4905 81.5135C57.9239 78.6396 43.3125 91.7027 45.1389 100.324C45.6607 102.153 46.7044 103.721 55.3147 108.946C68.6216 117.306 75.1445 121.486 81.4066 121.748C88.7123 122.27 98.6272 120.18 102.019 113.91C103.063 112.081 103.846 109.207 102.802 108.423C101.758 107.378 98.6272 110.252 92.626 112.865C87.4077 115.216 82.7111 117.306 78.7974 115.216C76.4491 113.91 74.1008 111.036 74.6227 108.685C75.6664 103.721 87.6686 104.766 88.7123 99.2792C89.2341 97.4504 88.4513 95.3603 87.1468 94.8378C85.8422 94.054 84.0157 95.0991 79.3192 98.4955C70.7089 104.766 68.6216 107.378 65.4905 106.856C65.4905 106.856 65.4905 106.856 65.2296 106.856C62.0986 106.072 55.3147 103.982 53.7492 99.5405C52.7055 96.9279 53.7492 93.009 55.8366 90.9189C60.2722 86.2162 68.3606 89.3513 69.4043 86.7387C70.1871 85.1711 68.0997 82.5585 65.4905 81.5135Z" fill="#1F1F22" stroke="#1F1F22" stroke-miterlimit="10"/>
<path d="M99.9315 85.1711C97.8442 84.3874 93.9304 83.6036 93.1477 85.1711C91.8431 87.5225 98.366 91.7027 107.498 104.243C111.412 109.73 113.238 113.126 115.848 112.865C118.457 112.604 118.457 109.468 124.197 105.55C126.806 103.721 127.85 103.721 130.198 101.631C132.807 99.5405 135.416 96.1441 134.634 95.3603C133.851 94.5766 129.676 96.6667 128.633 97.1892C121.588 100.847 121.066 104.243 118.196 103.982C117.152 103.982 116.108 103.459 107.759 92.2252C104.628 88.5675 103.063 86.2162 99.9315 85.1711Z" fill="#1F1F22" stroke="#1F1F22" stroke-miterlimit="10"/>
<path d="M133.329 69.4955C131.764 68.4504 128.893 67.4054 127.85 68.4505C126.284 70.018 130.981 74.7207 136.199 86.2162C138.287 91.1802 139.33 94.3153 141.418 94.5766C144.288 94.8378 145.331 90.9189 149.506 90.1351C154.724 89.3514 158.116 94.8378 160.725 93.2703C162.03 92.4865 162.552 90.3964 162.03 89.0901C161.247 87 158.377 86.4775 156.29 85.955C149.245 84.6487 147.158 87.5225 144.027 85.6937C142.722 84.9099 141.418 82.2973 138.547 76.8108C136.199 72.6306 135.677 70.8018 133.329 69.4955Z" fill="#1F1F22" stroke="#1F1F22" stroke-miterlimit="10"/>
<path d="M187.861 94.5765C188.644 89.6125 188.905 87.2612 187.6 84.3873C185.513 79.6846 180.294 77.3332 176.12 77.072C174.293 77.072 171.423 76.8107 169.075 78.9008C165.944 81.7747 166.987 87.2612 167.509 90.9188C168.031 93.7927 168.553 96.1441 170.379 98.4954C174.032 103.198 181.86 105.027 185.252 102.153C187.078 100.847 187.339 98.7567 187.861 94.5765Z" fill="#1F1F22" stroke="#1F1F22" stroke-miterlimit="10"/>
<path d="M173.772 96.144C170.38 93.5314 170.119 88.5674 171.945 85.4323C172.206 84.9098 173.772 82.5584 176.642 82.0359C180.556 81.2521 183.426 84.9098 184.208 85.4323C184.991 86.4774 186.818 88.5674 186.296 91.4413C185.774 94.5764 183.165 96.144 182.904 96.4053C180.034 97.9728 176.381 98.2341 173.772 96.144Z" fill="#EAEAEB" stroke="#1F1F22" stroke-miterlimit="10"/>
<path d="M211.865 62.1801C213.431 60.8738 216.823 62.1801 218.649 64.0089C220.997 66.3603 220.997 69.2341 220.736 72.8918C220.736 76.5495 220.476 81.7747 217.084 86.2161C213.431 90.9188 207.169 93.2702 206.125 91.9639C204.82 90.6576 211.082 86.4774 212.387 77.8558C213.692 69.4954 209.256 64.0089 211.865 62.1801Z" fill="#1F1F22" stroke="#1F1F22" stroke-miterlimit="10"/>
<path d="M197.515 100.063C196.733 98.4957 196.993 96.1443 198.559 95.0993C199.864 94.3155 201.69 94.5768 202.734 95.6218C203.777 96.9281 203.256 98.7569 202.995 99.5407C202.734 100.325 202.212 102.153 200.646 102.415C199.603 102.937 198.298 101.37 197.515 100.063Z" fill="#1F1F22" stroke="#1F1F22" stroke-miterlimit="10"/>
</svg>
