<svg width="191" height="319" viewBox="0 0 191 319" fill="none" xmlns="http://www.w3.org/2000/svg">
<path d="M6.14954 99.3489C6.7099 103.989 8.0349 114.356 15.4018 118.026C21.7689 121.071 30.0822 117.81 34.9247 113.937C46.9964 104.807 42.0151 90.8163 48.6894 74.32C57.8825 51.8946 85.7889 32.3037 106.851 37.6057C124.572 42.1512 136.489 63.9642 139.431 82.7553C144.804 118.719 115.211 130.99 102.667 192.666C100.152 205.332 92.4419 242.926 106.833 251.389C112.67 254.742 120.93 252.858 126.474 249.217C142.847 238.585 136.046 212.883 140.349 180.172C147.896 122.103 180.561 117.342 176.671 76.4752C174.179 51.6072 159.24 23.1063 132.96 11.114C108.508 -0.165937 84.6475 7.07754 75.3513 9.98715C40.7067 20.5068 24.1308 47.9238 18.6427 56.923C4.69518 80.1912 5.76815 95.3855 6.14954 99.3489Z" fill="white" stroke="#1F1F22" stroke-width="2" stroke-miterlimit="10"/>
<path d="M104.19 293.208C104.187 286.472 107.223 275.562 115.852 272.968C124.216 270.528 131.665 277.768 132.392 278.411C138.687 284.76 141.772 296.943 135.147 305.325C129.661 312.125 118.972 314.708 111.819 310.061C104.103 305.175 104.18 295.271 104.19 293.208Z" fill="white" stroke="#1F1F22" stroke-width="2" stroke-miterlimit="10"/>
</svg>
