<svg width="1184" height="930" viewBox="0 0 1184 930" fill="none" xmlns="http://www.w3.org/2000/svg">
<path d="M278.729 419.482C309.174 426.595 325.248 436.148 347.919 413.476C349.742 411.654 357.953 400.683 353.925 400.683C350.388 400.683 343.223 411.021 341 413.738C332.296 424.377 313.977 448.989 313.977 462.954C313.977 486.723 349.999 466.15 358.624 460.605C360.467 459.42 378.794 447.568 371.418 445.461C364.785 443.566 358.304 448.001 353.925 452.38C337.273 469.032 358.661 481.251 375.596 477.706C412.144 470.057 445.899 448.769 471.419 421.832C479.481 413.321 469.403 413.333 463.325 418.307C454.273 425.713 441.661 435.971 436.17 446.375C431.664 454.914 406.916 501.155 429.251 503.947C444.395 505.84 471.863 490.538 483.69 482.406C497.154 473.15 511.468 463.875 521.941 451.074C523.552 449.106 534.06 432.27 530.166 434.103C520.937 438.446 509.207 447.49 502.098 454.599C493.206 463.491 480.333 475.209 476.641 487.628C473.593 497.88 466.385 509.722 470.244 520.526C476.984 539.399 523.78 515.604 533.56 507.602C535.806 505.765 546.238 490.689 537.215 495.2C527.489 500.063 523.429 510.994 519.722 520.526C513.016 537.771 534.11 555.187 550.009 545.07C562.1 537.375 578.856 514.936 572.463 500.553C566.983 488.221 542.078 496.66 537.737 506.427C532.041 519.243 558.037 525.647 565.936 528.098C584.421 533.835 610.861 520.437 625.989 511.127C633.802 506.318 626.83 502.453 619.983 509.299C610.966 518.316 605.62 532.019 598.312 542.981C568.054 588.368 532.727 622.405 487.607 653.425C451.285 678.396 412.567 698.086 371.679 714.261C355.268 720.753 338.131 729.998 319.851 727.185C301.093 724.299 291.668 702.439 297.528 686.324C302.863 671.65 313.277 662.706 330.426 666.741C380.079 678.424 419.4 732.541 431.471 779.013C449.973 850.246 490.786 928.361 574.813 928.361C665.015 928.361 736.95 856.215 786.825 789.196C803.806 766.378 829.242 733.634 824.814 702.642C820.582 673.016 797.677 646.759 766.981 643.765C717.421 638.929 677.923 681.019 663.195 723.922C650.412 761.16 649.771 811.524 665.153 848.204C680.034 883.688 707.882 910.345 747.791 910.345C768.29 910.345 789.406 907.781 809.801 905.907C846.022 902.578 881.714 901.326 917.113 892.33C988.19 874.266 1061 832.017 1136.3 847.421C1151.08 850.443 1171.12 854.692 1182.39 865.959C1185.65 869.218 1170.93 868.309 1169.33 868.309" stroke="#1F1F22" stroke-width="2" stroke-linecap="round"/>
<path d="M1 325.462C40.711 313.214 79.0596 312.351 120.037 310.409C156.935 308.66 192.454 302.875 228.005 293.04C245.42 288.222 264.598 281.24 278.809 269.633C284.997 264.578 294.255 254.159 288.804 245.895C281.349 234.591 265.063 233.93 252.788 233.323C229.721 232.182 205.298 234.002 182.902 239.774C147.001 249.028 111.361 267.569 90.2161 299.326C75.8286 320.934 72.5784 352.207 94.1812 370.457C107.095 381.367 121.482 389.824 137.55 395.187C157.114 401.717 177.981 398.201 197.771 394.443C227.394 388.818 256.72 381.477 285.252 371.697C308.18 363.839 333.463 357.566 354.064 344.486C364.09 338.12 375.007 330.695 379.177 318.928C383.443 306.891 370.204 300.939 360.59 300.318C320.001 297.696 278.41 315.834 242.71 332.906C223.095 342.286 200.078 358.786 198.845 382.863C197.899 401.326 211.185 422.009 230.897 423.557C251.222 425.153 271.877 421.491 290.787 414.128C294.689 412.609 301.561 404.939 294.752 408.834C291.228 410.851 288.319 415.448 285.748 418.594C279.786 425.89 271.761 434.524 267.987 443.159C265.751 448.277 260.365 454.028 265.674 446.054" stroke="#1F1F22" stroke-width="2" stroke-linecap="round"/>
<path d="M276.912 414.175C265.374 428.299 264.529 431.437 265.149 432.037C265.77 432.637 268.953 431.937 283.897 419.658C281.712 417.792 279.24 416.003 276.912 414.175Z" fill="#1F1F22" stroke="#1F1F22" stroke-miterlimit="10"/>
<path d="M275.34 414.597C272.697 404.732 283.896 393.917 287.781 390.118C320.063 358.483 460.845 209.67 485.354 183.337C513.529 152.956 546.047 126.775 572.036 94.5287C572.036 94.5287 592.256 69.3443 632.617 48.4166C636.781 46.2283 647.748 40.838 660.745 43.0248C664.741 43.6397 672.446 44.9462 674.969 49.7864C680.492 60.1051 659.133 81.6108 652.457 88.1496C585.36 154.548 551.773 187.605 463.028 264.707C376.263 340.054 300.399 433.778 282.739 423.34C276.719 419.743 275.34 414.597 275.34 414.597Z" fill="white" stroke="#1F1F22" stroke-width="2" stroke-miterlimit="10"/>
<path d="M497.03 164.579C500.334 168.903 507.942 168.703 514.567 167.694C519.353 159.823 526.138 149.118 535.124 136.904C542.986 126.216 552.324 113.601 566.665 99.6452C585.244 81.4894 594.462 72.4306 606.939 69.2409C623.847 64.8636 630.577 72.2539 651.077 65.8416C657.862 63.7169 674.255 58.5585 674.788 49.6817C675.397 41.0909 661.112 30.6682 650.512 32.2826C645.784 32.9366 644.253 35.7986 638.095 36.8357C631.365 38.0259 625.519 36.2215 621.684 34.4909C582.977 51.298 557.556 72.5129 541.739 88.3964C519.428 110.923 487.558 152.101 497.03 164.579Z" fill="#1F1F22" stroke="#1F1F22" stroke-miterlimit="10"/>
<path d="M640.755 37.0423C644.249 33.501 651.591 26.0175 661.046 16.129C672.445 4.34082 675.653 0.876153 680.897 1.00335C688.763 1.19415 696.943 9.42175 697.335 17.7445C697.608 23.3406 694.086 27.349 687.145 35.1847C682.46 40.577 679.538 43.9652 674.049 46.3553C672.019 47.3588 661.509 52.1669 650.901 46.8883C645.215 43.9681 642.121 39.2811 640.755 37.0423Z" fill="white" stroke="#1F1F22" stroke-width="2" stroke-miterlimit="10"/>
<path d="M318.739 358.685C335.142 339.273 352.938 319.336 372.162 299.015C393.787 276.212 415.013 255.355 435.726 236.014C440.335 238.917 445.975 243.381 451.75 249.495C456.724 254.905 460.296 260.23 462.847 264.603C445.327 283.854 426.273 303.669 405.361 323.983C382.963 345.613 360.963 365.299 339.685 383.105C336.067 379.325 332.554 375.363 328.783 371.01C325.193 366.762 321.785 362.619 318.739 358.685Z" fill="#1F1F22" stroke="#1F1F22" stroke-miterlimit="10"/>
</svg>
